<svg data-v-423bf9ae="" xmlns="http://www.w3.org/2000/svg" viewBox="0 0 342.3266073332576 60" class="font"><!----><!----><!----><g data-v-423bf9ae="" id="9c4a3616-5b27-42d5-859d-ebe236d92087" fill="white" transform="matrix(6.40341588469435,0,0,6.40341588469435,-8.324443735590165,-27.918894589052776)"><path d="M1.30 4.36L1.30 13.52L3.20 13.52L3.20 10.38C3.65 10.60 4.32 10.79 5.13 10.79C6.96 10.79 8.54 9.50 8.54 7.63C8.54 5.61 6.79 4.36 5.09 4.36ZM4.81 9.15C4.21 9.15 3.61 9.01 3.20 8.85L3.20 6.14L4.77 6.14C5.76 6.14 6.60 6.67 6.60 7.63C6.60 8.48 5.91 9.15 4.81 9.15ZM13.37 6.44C11.36 6.44 9.68 8.04 9.68 10.09C9.68 12.13 11.36 13.73 13.37 13.73C15.38 13.73 17.08 12.13 17.08 10.09C17.08 8.04 15.38 6.44 13.37 6.44ZM13.37 8.12C14.36 8.12 15.23 8.83 15.23 10.09C15.23 11.35 14.36 12.04 13.37 12.04C12.39 12.04 11.53 11.35 11.53 10.09C11.53 8.83 12.39 8.12 13.37 8.12ZM20.95 6.44C19.39 6.44 18.29 7.33 18.29 8.63C18.29 9.50 18.63 10.14 19.69 10.50L20.54 10.80C21.14 11.01 21.45 11.16 21.45 11.51C21.45 11.96 21.07 12.22 20.37 12.22C19.70 12.22 18.77 11.87 18.25 11.51L18.25 13.03C18.72 13.37 19.67 13.73 20.60 13.73C22.08 13.73 23.28 12.78 23.28 11.51C23.28 10.62 22.78 10.01 21.71 9.69L20.93 9.43C20.32 9.24 20.14 9.01 20.14 8.71C20.14 8.30 20.55 7.97 21.21 7.97C21.89 7.97 22.56 8.31 22.98 8.60L22.98 7.07C22.59 6.73 21.81 6.44 20.95 6.44ZM27.26 6.62L27.26 4.61L26.37 4.61C25.94 6.02 25.17 6.86 24.28 7.18L24.28 8.07L25.53 8.07L25.53 11.50C25.53 12.88 26.39 13.73 27.62 13.73C28.41 13.73 28.90 13.45 29.24 13.11L29.24 11.73C28.93 11.92 28.60 12.04 28.11 12.04C27.55 12.04 27.26 11.66 27.26 11.05L27.26 8.07L29.18 8.07L29.18 6.62ZM33.22 11.81L33.22 4.36L31.32 4.36L31.32 13.52L37.80 13.52L37.80 11.81ZM45.83 6.62L44.06 6.62L44.06 10.42C44.06 11.48 43.52 12.02 42.71 12.02C41.90 12.02 41.36 11.48 41.36 10.42L41.34 6.62L39.59 6.62L39.59 10.73C39.59 12.58 40.92 13.70 42.71 13.70C44.50 13.70 45.83 12.58 45.83 10.73ZM51.91 9.99L54.66 6.62L52.61 6.62L50.82 8.78L49.03 6.62L46.98 6.62L49.72 9.99L46.88 13.52L49.05 13.52L50.82 11.17L52.58 13.52L54.76 13.52Z"></path></g><!----><!----></svg>