<svg data-v-423bf9ae="" xmlns="http://www.w3.org/2000/svg" viewBox="0 0 NaN NaN" class="iconAbove"><!----><!----><!----><g data-v-423bf9ae="" id="23b5cda6-8f23-458e-b4de-3e6b87f1899b" fill="#ffffff" transform="matrix(Infinity,0,0,Infinity,0,0)"><path d=""></path></g><!----><g data-v-423bf9ae="" id="63b5adee-f419-44fc-b383-1f8772b68128" transform="matrix(1,0,0,1,0,-5)" stroke="none" fill="#00A3DD"><path d="M39.1 31.4h-5.5V40h5.5c1.4 0 2.5-.4 3.2-1s1.2-1.8 1.2-3.3c0-1.5-.4-2.6-1.2-3.2-.7-.8-1.8-1.1-3.2-1.1z"></path><path d="M84 5H16C9.9 5 5 9.6 5 15.3V67c0 5.7 4.9 10.3 11 10.3h7.2v15.3c0 .9.6 1.8 1.5 2.2.4.2.7.2 1.1.2.6 0 1.2-.2 1.7-.5l22.7-17.2H84c6.1 0 11-4.6 11-10.3V15.3C95 9.6 90.1 5 84 5zM47.1 42.9C45.4 44.3 43 45 39.8 45h-6.1v10.5h-6.1V26.3h12.5c2.9 0 5.2.8 6.9 2.3s2.6 3.8 2.6 7c0 3.4-.8 5.8-2.5 7.3zm28.1 12.6H54.5V26.3h6.1v23.9h14.6v5.3z"></path></g><!----></svg>